<svg width="425" height="90" viewBox="0 0 425 90" fill="none" xmlns="http://www.w3.org/2000/svg">
<g filter="url(#filter0_d_2_246)">
<rect x="5" y="57.7275" width="16.5072" height="36.7795" transform="rotate(-90 5 57.7275)" fill="#F3BB2B"/>
<rect x="5" y="67.5777" width="19.4032" height="36.7795" transform="rotate(-90 5 67.5777)" fill="#F3BB2B"/>
<rect x="5" y="78" width="20.272" height="36.3399" rx="10.136" transform="rotate(-90 5 78)" fill="#F3BB2B"/>
<rect x="41.7812" y="78" width="20.5145" height="36.3449" transform="rotate(180 41.7812 78)" fill="#F3BB2B"/>
<rect x="25.474" y="4" width="16.4444" height="37.3333" fill="#F6F6EE"/>
<rect x="15.4752" y="4" width="19.5555" height="37.3333" fill="#F6F6EE"/>
<rect x="5.03088" y="4" width="20.4444" height="36.8889" rx="10.2222" fill="#F6F6EE"/>
<rect x="5.03088" y="41.3332" width="20.8889" height="36.4444" transform="rotate(-90 5.03088 41.3332)" fill="#F6F6EE"/>
<rect x="58.4846" y="78" width="16.7046" height="36.7795" transform="rotate(180 58.4846 78)" fill="#5B5B5B"/>
<rect x="68.4492" y="78" width="19.6353" height="36.7795" transform="rotate(180 68.4492 78)" fill="#5B5B5B"/>
<rect x="79" y="78" width="20.5145" height="36.3399" rx="10.2572" transform="rotate(180 79 78)" fill="#5B5B5B"/>
<rect x="79" y="41.2188" width="20.5145" height="36.7795" transform="rotate(90 79 41.2188)" fill="#5B5B5B"/>
<rect x="79.0309" y="24.5154" width="16.7046" height="37.2471" transform="rotate(90 79.0309 24.5154)" fill="#222222"/>
<rect x="79.0309" y="14.5508" width="19.6353" height="37.2471" transform="rotate(90 79.0309 14.5508)" fill="#222222"/>
<rect x="79.0309" y="4" width="20.5145" height="36.8019" rx="10.2572" transform="rotate(90 79.0309 4)" fill="#222222"/>
<rect x="41.7839" y="4" width="20.7752" height="36.7795" fill="#222222"/>
<circle cx="23.3901" cy="22.8291" r="18.3898" transform="rotate(-90 23.3901 22.8291)" fill="#F6F6EE"/>
</g>
<path d="M135.378 11.573H113.476V16.79H132.041V24.169H113.476V37H101.82V4.1H135.378V11.573ZM176.453 14.581C176.453 17.2757 175.654 19.516 174.056 21.302C172.458 23.088 170.516 24.216 168.228 24.686L176.218 37H163.34L156.29 25.062H150.556V37H138.9V4.1H164.75C168.197 4.1 171.001 5.07133 173.163 7.014C175.357 8.92533 176.453 11.4477 176.453 14.581ZM164.327 14.581C164.327 13.5783 164.03 12.8107 163.434 12.278C162.87 11.714 162.118 11.432 161.178 11.432H150.556V17.683H161.178C163.278 17.683 164.327 16.649 164.327 14.581ZM219.948 37H207.587L206.083 32.629H191.513L189.868 37H177.648L192.03 4.1H205.331L219.948 37ZM202.981 24.78L198.61 13.124L194.474 24.78H202.981ZM259.469 37H249.317L233.29 19.046H233.196C233.384 21.0827 233.478 24.78 233.478 30.138V37H222.057V4.1H231.504L248.048 22.618H248.142C247.954 20.4247 247.86 16.1007 247.86 9.646V4.1H259.469V37ZM298.198 12.09H286.307V37H274.651V12.09H262.76V4.1H298.198V12.09ZM336.971 27.036C336.971 30.2633 335.514 32.9267 332.6 35.026C329.717 37.094 325.393 38.128 319.628 38.128C307.69 38.128 301.172 35.12 300.076 29.104L313.001 27.741C313.063 28.3677 313.753 29.0727 315.069 29.856C316.416 30.608 317.889 30.984 319.487 30.984C321.241 30.984 322.667 30.702 323.764 30.138C324.892 29.5427 325.456 28.7437 325.456 27.741C325.456 26.1117 324.014 25.0463 321.132 24.545L308.865 22.336C303.851 21.4273 301.345 18.247 301.345 12.795C301.345 9.53633 302.88 7.09233 305.951 5.463C309.021 3.80233 312.922 2.972 317.654 2.972C323.795 2.972 328.197 3.70833 330.861 5.181C334.276 7.061 336.125 9.28566 336.407 11.855L324.187 12.56C323.842 11.7453 323.2 11.056 322.26 10.492C321.32 9.928 320.098 9.646 318.594 9.646C316.745 9.646 315.366 9.95933 314.458 10.586C313.549 11.1813 313.095 11.855 313.095 12.607C313.095 13.9857 313.941 14.816 315.633 15.098L328.558 17.354C331.378 17.8553 333.477 18.8423 334.856 20.315C336.266 21.7563 336.971 23.9967 336.971 27.036ZM379.498 4.1V24.498C379.498 29.5427 377.932 33.0833 374.798 35.12C371.665 37.1253 366.777 38.128 360.134 38.128C358.348 38.128 356.75 38.0653 355.34 37.94C353.962 37.846 352.489 37.6423 350.922 37.329C349.356 37.0157 348.008 36.5457 346.88 35.919C345.784 35.261 344.765 34.4463 343.825 33.475C342.885 32.5037 342.165 31.266 341.663 29.762C341.193 28.2267 340.958 26.472 340.958 24.498V4.1H352.379V23.652C352.379 26.0333 353.084 27.8663 354.494 29.151C355.904 30.4043 357.8 31.031 360.181 31.031C362.594 31.031 364.505 30.4513 365.915 29.292C367.357 28.1013 368.077 26.3467 368.077 24.028V4.1H379.498ZM421.784 37H383.949V29.527L405.663 11.761H384.983V4.1H421.784V11.667L401.48 29.01H421.784V37ZM143.133 52.385L132.182 54.688C129.644 52.15 126.385 50.881 122.406 50.881C119.617 50.881 117.33 51.7897 115.544 53.607C113.758 55.393 112.865 58.0407 112.865 61.55C112.865 64.8087 113.742 67.3467 115.497 69.164C117.252 70.95 119.476 71.843 122.171 71.843C124.991 71.843 127.404 71.2007 129.409 69.916C131.414 68.6313 132.558 67.237 132.84 65.733V65.451H124.615V59.247H142.992V78H133.169V74.24C130.192 77.4987 126.448 79.128 121.936 79.128C119.931 79.128 117.957 78.9557 116.014 78.611C114.103 78.2663 112.176 77.671 110.233 76.825C108.322 75.9477 106.645 74.8667 105.204 73.582C103.794 72.266 102.635 70.574 101.726 68.506C100.849 66.438 100.41 64.1193 100.41 61.55C100.41 58.8867 100.896 56.5053 101.867 54.406C102.838 52.2753 104.076 50.5833 105.58 49.33C107.115 48.0453 108.886 46.9957 110.891 46.181C112.896 45.335 114.823 44.7553 116.672 44.442C118.552 44.1287 120.448 43.972 122.359 43.972C131.978 43.972 138.903 46.7763 143.133 52.385ZM146.946 61.503C146.946 58.6203 147.494 56.0823 148.591 53.889C149.719 51.6643 151.082 49.9567 152.68 48.766C154.278 47.544 156.142 46.557 158.273 45.805C160.403 45.0217 162.299 44.5203 163.96 44.301C165.652 44.0817 167.312 43.972 168.942 43.972C170.446 43.972 171.918 44.066 173.36 44.254C174.801 44.4107 176.415 44.7083 178.201 45.147C179.987 45.5543 181.616 46.1967 183.089 47.074C184.561 47.92 185.924 48.9697 187.178 50.223C188.431 51.445 189.418 53.0273 190.139 54.97C190.859 56.9127 191.22 59.106 191.22 61.55C191.22 64.3387 190.718 66.814 189.716 68.976C188.713 71.138 187.444 72.8457 185.909 74.099C184.405 75.321 182.619 76.3393 180.551 77.154C178.483 77.9373 176.509 78.4543 174.629 78.705C172.78 78.987 170.884 79.128 168.942 79.128C167.782 79.128 166.592 79.0653 165.37 78.94C164.179 78.8147 162.832 78.5797 161.328 78.235C159.855 77.8903 158.461 77.4517 157.145 76.919C155.829 76.355 154.528 75.6187 153.244 74.71C151.99 73.77 150.909 72.7203 150.001 71.561C149.092 70.3703 148.356 68.9133 147.792 67.19C147.228 65.4667 146.946 63.571 146.946 61.503ZM159.401 61.55C159.401 64.9653 160.294 67.5503 162.08 69.305C163.866 71.0283 166.153 71.89 168.942 71.89C171.856 71.89 174.221 71.0283 176.039 69.305C177.856 67.5817 178.765 64.9967 178.765 61.55C178.765 58.1033 177.934 55.4713 176.274 53.654C174.613 51.8053 172.169 50.881 168.942 50.881C166.09 50.881 163.787 51.7897 162.033 53.607C160.278 55.393 159.401 58.0407 159.401 61.55Z" fill="#F3BB2B"/>
<defs>
<filter id="filter0_d_2_246" x="0" y="0" width="90.0309" height="90" filterUnits="userSpaceOnUse" color-interpolation-filters="sRGB">
<feFlood flood-opacity="0" result="BackgroundImageFix"/>
<feColorMatrix in="SourceAlpha" type="matrix" values="0 0 0 0 0 0 0 0 0 0 0 0 0 0 0 0 0 0 127 0" result="hardAlpha"/>
<feOffset dx="3" dy="4"/>
<feGaussianBlur stdDeviation="4"/>
<feComposite in2="hardAlpha" operator="out"/>
<feColorMatrix type="matrix" values="0 0 0 0 0 0 0 0 0 0 0 0 0 0 0 0 0 0 0.25 0"/>
<feBlend mode="normal" in2="BackgroundImageFix" result="effect1_dropShadow_2_246"/>
<feBlend mode="normal" in="SourceGraphic" in2="effect1_dropShadow_2_246" result="shape"/>
</filter>
</defs>
</svg>
