<svg width="26" height="30" viewBox="0 0 26 30" fill="none" xmlns="http://www.w3.org/2000/svg">
<path d="M3.76909 4.16664H3.94598L4.00484 3.99983C4.31475 3.12151 4.88946 2.36095 5.64977 1.82297C6.41007 1.28499 7.31853 0.996094 8.24992 0.996094C9.1813 0.996094 10.0898 1.28499 10.8501 1.82297C11.6104 2.36095 12.1851 3.12151 12.495 3.99983L12.5539 4.16664H12.7308H24.0833C24.4369 4.16664 24.776 4.30712 25.0261 4.55716C25.2761 4.80721 25.4166 5.14635 25.4166 5.49997C25.4166 5.8536 25.2761 6.19273 25.0261 6.44278C24.776 6.69283 24.4369 6.83331 24.0833 6.83331H12.7308H12.5539L12.495 7.00012C12.1851 7.87844 11.6104 8.639 10.8501 9.17698C10.0898 9.71496 9.1813 10.0039 8.24992 10.0039C7.31853 10.0039 6.41007 9.71496 5.64977 9.17698C4.88946 8.639 4.31475 7.87844 4.00484 7.00012L3.94598 6.83331H3.76909H1.91659C1.56296 6.83331 1.22383 6.69283 0.973777 6.44278C0.723728 6.19273 0.583252 5.8536 0.583252 5.49997C0.583252 5.14635 0.723728 4.80721 0.973777 4.55716C1.22383 4.30712 1.56296 4.16664 1.91659 4.16664H3.76909ZM13.2691 13.6666H13.446L13.5048 13.4998C13.8147 12.6215 14.3895 11.8609 15.1498 11.323C15.9101 10.785 16.8185 10.4961 17.7499 10.4961C18.6813 10.4961 19.5898 10.785 20.3501 11.323C21.1104 11.8609 21.6851 12.6215 21.995 13.4998L22.0539 13.6666H22.2308H24.0833C24.4369 13.6666 24.776 13.8071 25.0261 14.0572C25.2761 14.3072 25.4166 14.6464 25.4166 15C25.4166 15.3536 25.2761 15.6927 25.0261 15.9428C24.776 16.1928 24.4369 16.3333 24.0833 16.3333H22.2308H22.0539L21.995 16.5001C21.6851 17.3784 21.1104 18.139 20.3501 18.677C19.5898 19.215 18.6813 19.5039 17.7499 19.5039C16.8185 19.5039 15.9101 19.215 15.1498 18.677C14.3895 18.139 13.8147 17.3784 13.5048 16.5001L13.446 16.3333H13.2691H1.91659C1.56296 16.3333 1.22383 16.1928 0.973777 15.9428C0.723728 15.6927 0.583252 15.3536 0.583252 15C0.583252 14.6464 0.723728 14.3072 0.973777 14.0572C1.22382 13.8071 1.56296 13.6666 1.91659 13.6666H13.2691ZM3.76909 23.1666H3.94598L4.00484 22.9998C4.31475 22.1215 4.88947 21.3609 5.64977 20.823C6.41007 20.285 7.31853 19.9961 8.24992 19.9961C9.18131 19.9961 10.0898 20.285 10.8501 20.823C11.6104 21.3609 12.1851 22.1215 12.495 22.9998L12.5539 23.1666H12.7308H24.0833C24.4369 23.1666 24.776 23.3071 25.0261 23.5572C25.2761 23.8072 25.4166 24.1464 25.4166 24.5C25.4166 24.8536 25.2761 25.1927 25.0261 25.4428C24.776 25.6928 24.4369 25.8333 24.0833 25.8333H12.7308H12.5539L12.495 26.0001C12.1851 26.8784 11.6104 27.639 10.8501 28.177C10.0898 28.715 9.1813 29.0039 8.24992 29.0039C7.31853 29.0039 6.41007 28.715 5.64977 28.177C4.88946 27.639 4.31475 26.8784 4.00484 26.0001L3.94598 25.8333H3.76909H1.91659C1.56296 25.8333 1.22382 25.6928 0.973777 25.4428C0.723728 25.1927 0.583252 24.8536 0.583252 24.5C0.583252 24.1464 0.723728 23.8072 0.973777 23.5572C1.22382 23.3071 1.56296 23.1666 1.91659 23.1666H3.76909ZM8.24992 3.66664C7.76369 3.66664 7.29737 3.8598 6.95356 4.20361C6.60974 4.54743 6.41658 5.01374 6.41658 5.49997C6.41658 5.9862 6.60974 6.45252 6.95356 6.79634C7.29737 7.14015 7.76369 7.33331 8.24992 7.33331C8.73615 7.33331 9.20246 7.14015 9.54628 6.79634C9.8901 6.45252 10.0833 5.9862 10.0833 5.49997C10.0833 5.01374 9.8901 4.54743 9.54628 4.20361C9.20246 3.8598 8.73615 3.66664 8.24992 3.66664ZM17.7499 13.1666C17.2637 13.1666 16.7974 13.3598 16.4536 13.7036C16.1097 14.0474 15.9166 14.5137 15.9166 15C15.9166 15.4862 16.1097 15.9525 16.4536 16.2963C16.7974 16.6402 17.2637 16.8333 17.7499 16.8333C18.2361 16.8333 18.7025 16.6402 19.0463 16.2963C19.3901 15.9525 19.5833 15.4862 19.5833 15C19.5833 14.5137 19.3901 14.0474 19.0463 13.7036C18.7025 13.3598 18.2361 13.1666 17.7499 13.1666ZM8.24992 22.6666C7.76369 22.6666 7.29737 22.8598 6.95356 23.2036C6.60974 23.5474 6.41658 24.0137 6.41658 24.5C6.41658 24.9862 6.60974 25.4525 6.95356 25.7963C7.29737 26.1402 7.76369 26.3333 8.24992 26.3333C8.73615 26.3333 9.20246 26.1402 9.54628 25.7963C9.8901 25.4525 10.0833 24.9862 10.0833 24.5C10.0833 24.0137 9.8901 23.5474 9.54628 23.2036C9.20246 22.8598 8.73615 22.6666 8.24992 22.6666Z" fill="#A3A3A3" stroke="#2C2C2D" stroke-width="0.5"/>
</svg>
