<svg width="30" height="30" viewBox="0 0 30 30" fill="none" xmlns="http://www.w3.org/2000/svg">
<path d="M3.33877 10.25H9.06252C9.37747 10.25 9.67951 10.1249 9.90221 9.90223C10.1249 9.67953 10.25 9.37749 10.25 9.06254C10.25 8.7476 10.1249 8.44555 9.90221 8.22285C9.67951 8.00015 9.37747 7.87504 9.06252 7.87504H5.50002C7.16444 5.65685 9.55271 4.09113 12.2507 3.44943C14.9486 2.80773 17.786 3.13052 20.2709 4.36181C22.7558 5.59311 24.7313 7.65525 25.855 10.1906C26.9787 12.726 27.1795 15.5747 26.4228 18.2426C25.666 20.9106 23.9994 23.2295 21.7118 24.7973C19.4243 26.3651 16.6603 27.0829 13.899 26.8261C11.1377 26.5694 8.55333 25.3543 6.59412 23.3916C4.6349 21.4289 3.42439 18.8424 3.17252 16.0807C3.16501 15.9206 3.12517 15.7637 3.05539 15.6194C2.98562 15.4751 2.88736 15.3464 2.76653 15.2411C2.6457 15.1358 2.50481 15.056 2.35234 15.0066C2.19987 14.9572 2.03897 14.9392 1.87935 14.9537C1.71973 14.9681 1.56468 15.0147 1.42355 15.0907C1.28242 15.1666 1.15812 15.2704 1.05815 15.3956C0.958181 15.5209 0.884603 15.6651 0.841852 15.8196C0.799101 15.974 0.788061 16.1356 0.809398 16.2944C1.10806 19.5602 2.52397 22.623 4.81827 24.9661C7.11257 27.3093 10.1448 28.7894 13.4036 29.1569C16.6623 29.5243 19.948 28.7565 22.7065 26.9831C25.4649 25.2096 27.5273 22.539 28.5457 19.4218C29.564 16.3045 29.4761 12.9314 28.2966 9.8715C27.1172 6.81157 24.9184 4.25208 22.0713 2.62479C19.2242 0.997508 15.9029 0.402023 12.6677 0.938791C9.43259 1.47556 6.48158 3.11173 4.31252 5.57129V3.12504C4.31252 2.8101 4.18741 2.50805 3.96471 2.28535C3.74201 2.06265 3.43997 1.93754 3.12502 1.93754C2.81008 1.93754 2.50803 2.06265 2.28533 2.28535C2.06263 2.50805 1.93752 2.8101 1.93752 3.12504V9.06254C1.93752 9.37749 2.06263 9.67953 2.28533 9.90223C2.50803 10.1249 2.81008 10.25 3.12502 10.25H3.33877ZM13.8125 7.87504C14.1275 7.87504 14.4295 8.00015 14.6522 8.22285C14.8749 8.44555 15 8.7476 15 9.06254V15H18.5625C18.8775 15 19.1795 15.1252 19.4022 15.3479C19.6249 15.5706 19.75 15.8726 19.75 16.1875C19.75 16.5025 19.6249 16.8045 19.4022 17.0272C19.1795 17.2499 18.8775 17.375 18.5625 17.375H13.8125C13.4976 17.375 13.1955 17.2499 12.9728 17.0272C12.7501 16.8045 12.625 16.5025 12.625 16.1875V9.06254C12.625 8.7476 12.7501 8.44555 12.9728 8.22285C13.1955 8.00015 13.4976 7.87504 13.8125 7.87504Z" fill="#A3A3A3"/>
</svg>
