<svg width="56" height="57" viewBox="0 0 56 57" fill="none" xmlns="http://www.w3.org/2000/svg">
<rect x="0.5" y="0.5" width="55" height="56" rx="27.5" fill="#2C2C2D" stroke="#F3BB2B"/>
<path d="M42.2154 17.4509C40.8476 17.4509 39.9927 18.1138 39.6508 19.4397L27.9267 15.5357C27.9267 15.1429 27.7801 14.7991 27.487 14.5045C27.1939 14.2098 26.8519 14.0625 26.4611 14.0625C26.0703 14.0625 25.7162 14.2098 25.3986 14.5045C25.0811 14.7991 24.9223 15.1429 24.9223 15.5357C24.9223 15.9286 25.0689 16.2723 25.362 16.567L12.9784 30.8571C12.8807 30.808 12.7341 30.7835 12.5387 30.7835C11.6106 30.7835 11.1465 31.25 11.1465 32.183C11.1465 32.5759 11.2808 32.9074 11.5495 33.1775C11.8182 33.4475 12.1479 33.5826 12.5387 33.5826C13.0761 33.5826 13.4913 33.3125 13.7844 32.7723L24.9956 35.4978C24.9956 35.5469 24.9834 35.6328 24.959 35.7556C24.9346 35.8783 24.9223 35.9643 24.9223 36.0134C24.9223 36.7009 25.1666 37.2902 25.6551 37.7812C26.1436 38.2723 26.7298 38.5179 27.4137 38.5179C28.0976 38.5179 28.6838 38.2723 29.1723 37.7812C29.6609 37.2902 29.9051 36.7009 29.9051 36.0134C29.9051 35.6696 29.8807 35.4241 29.8318 35.2768L38.4051 31.7411C38.6494 31.9866 38.9669 32.1094 39.3577 32.1094C39.6996 32.1094 40.005 31.9743 40.2736 31.7042C40.5423 31.4342 40.6767 31.1272 40.6767 30.7835C40.6767 30.2924 40.5057 29.9241 40.1637 29.6786L41.556 22.7545C41.6048 22.7545 41.7025 22.7667 41.8491 22.7913C41.9956 22.8158 42.1177 22.8281 42.2154 22.8281C42.9482 22.8281 43.5711 22.558 44.084 22.0179C44.5969 21.4777 44.8534 20.8393 44.8534 20.1027C44.8534 19.3661 44.5969 18.74 44.084 18.2243C43.5711 17.7087 42.9482 17.4509 42.2154 17.4509ZM27.3404 16.7879L32.6163 23.2701L27.2672 25.4799L26.9008 17.0089L27.3404 16.7879ZM26.4611 17.0826L26.7542 25.7009L24.3361 26.6585C24.3361 26.6094 24.1896 26.4375 23.8965 26.1429L25.9482 17.0089C26.0459 17.058 26.2169 17.0826 26.4611 17.0826ZM24.4827 27.3951V27.1004L26.8275 26.1429L27.1206 33.5089C27.0229 33.5089 26.9008 33.5335 26.7542 33.5826C26.6077 33.6317 26.51 33.6562 26.4611 33.6562L24.043 28.5C24.3361 28.2054 24.4827 27.8371 24.4827 27.3951ZM28.9525 34.0246C28.5129 33.6808 28.0488 33.5089 27.5603 33.5089L27.2672 25.9955L32.9094 23.6384L35.4741 26.8058L28.9525 34.0246ZM33.2758 23.4911L39.7241 20.9129C39.7241 21.0112 39.8462 21.2812 40.0904 21.7232L35.6939 26.5112L33.2758 23.4911ZM39.5775 20.471L32.9827 23.1228L27.6336 16.567C27.7313 16.4196 27.829 16.1987 27.9267 15.904L39.5775 19.808V20.471ZM25.6551 16.8616L23.6034 25.9955C23.3103 25.8973 23.1149 25.8482 23.0172 25.8482C22.6264 25.8482 22.2722 25.9955 21.9547 26.2902C21.6371 26.5848 21.4784 26.9531 21.4784 27.3951C21.4784 27.4442 21.5028 27.5179 21.5517 27.6161V27.7634L13.418 31.0781C13.3692 31.029 13.3203 31.0045 13.2715 31.0045L25.6551 16.8616ZM13.8577 32.4777C13.8577 32.4286 13.8821 32.3795 13.931 32.3304V32.183C13.931 31.8884 13.8577 31.6674 13.7111 31.5201L21.7715 28.2054C22.0157 28.6473 22.431 28.8683 23.0172 28.8683C23.2126 28.8683 23.4568 28.8192 23.7499 28.721L26.168 33.8772C25.6795 34.1719 25.3132 34.5893 25.0689 35.1295L13.8577 32.4777ZM29.6853 34.9821C29.5876 34.7857 29.441 34.5402 29.2456 34.2455L35.6939 27.1004L38.1853 30.1205C38.0876 30.4152 38.0387 30.6362 38.0387 30.7835C38.0387 30.9308 38.0876 31.1518 38.1853 31.4464L29.6853 34.9821ZM39.8706 29.4576C39.8218 29.4576 39.7363 29.4453 39.6142 29.4208C39.492 29.3962 39.4065 29.3839 39.3577 29.3839C38.918 29.3839 38.6005 29.5312 38.4051 29.8259L35.9137 26.8058L40.3103 21.9442C40.6034 22.2388 40.9209 22.4598 41.2629 22.6071L39.8706 29.4576Z" fill="#F3BB2B"/>
</svg>
